<svg width="132" height="40" viewBox="0 0 132 40" fill="none" xmlns="http://www.w3.org/2000/svg">
<rect x="0.5" y="0.5" width="131" height="39" rx="19.5" fill="white" stroke="#EB5A1E"/>
<path d="M37.416 26.968H39.688V25H46.344V26.968H48.616V23H47.656V14.328H40.072L39.448 19.784C39.112 22.6 38.504 23.032 37.416 23.176V26.968ZM41.704 19.944L42.12 16.328H45.368V23H40.408C41.08 22.376 41.544 21.384 41.704 19.944ZM53.4826 25.192C56.0426 25.192 57.5786 23.336 57.5786 21.128C57.5786 18.936 56.0426 17.08 53.4826 17.08C50.9386 17.08 49.4026 18.936 49.4026 21.128C49.4026 23.336 50.9386 25.192 53.4826 25.192ZM53.4826 23.384C52.2186 23.384 51.5146 22.344 51.5146 21.128C51.5146 19.928 52.2186 18.888 53.4826 18.888C54.7466 18.888 55.4666 19.928 55.4666 21.128C55.4666 22.344 54.7466 23.384 53.4826 23.384ZM62.6701 23.384C61.4061 23.384 60.7021 22.344 60.7021 21.096C60.7021 19.928 61.4061 18.888 62.6701 18.888C63.9341 18.888 64.6541 19.928 64.6541 21.096C64.6541 22.344 63.9341 23.384 62.6701 23.384ZM62.6701 25.192C65.2461 25.192 66.7501 23.288 66.7501 21.112C66.7501 18.968 65.3101 17.08 63.1021 17.08C62.0301 17.08 61.0861 17.528 60.4621 18.344C60.6701 17.448 61.4221 16.648 63.2461 16.408C64.5101 16.248 66.4621 15.832 66.4621 14.328H64.3501C64.3501 14.6 63.9021 14.792 62.6061 14.984C59.9501 15.336 58.5901 17.016 58.5901 20.776C58.5901 23.288 60.0941 25.192 62.6701 25.192ZM74.9925 25V20.008C74.9925 17.784 73.3765 17.08 71.6165 17.08C70.4005 17.08 69.1845 17.464 68.2405 18.296L69.0085 19.656C69.6645 19.048 70.4325 18.744 71.2645 18.744C72.2885 18.744 72.9605 19.256 72.9605 20.04V21.08C72.4485 20.472 71.5365 20.136 70.5125 20.136C69.2805 20.136 67.8245 20.824 67.8245 22.632C67.8245 24.36 69.2805 25.192 70.5125 25.192C71.5205 25.192 72.4325 24.824 72.9605 24.2V25H74.9925ZM71.3285 23.816C70.5285 23.816 69.8725 23.4 69.8725 22.68C69.8725 21.928 70.5285 21.512 71.3285 21.512C71.9845 21.512 72.6245 21.736 72.9605 22.184V23.144C72.6245 23.592 71.9845 23.816 71.3285 23.816ZM82.048 25C83.6 25 84.432 24.072 84.432 22.904C84.432 21.976 83.808 21.208 82.96 21.016C83.68 20.808 84.272 20.184 84.272 19.256C84.272 18.216 83.472 17.272 81.904 17.272H77.008V25H82.048ZM81.552 23.336H79.04V21.896H81.552C82.064 21.896 82.352 22.232 82.352 22.616C82.352 23.064 82.048 23.336 81.552 23.336ZM81.488 20.232H79.04V18.936H81.488C81.936 18.936 82.208 19.208 82.208 19.592C82.208 19.944 81.936 20.232 81.488 20.232ZM88.335 25L91.615 20.152V25H93.647V17.272H91.599L88.415 21.944V17.272H86.383V25H88.335ZM99.1363 25V19.048H101.296V17.272H94.9283V19.048H97.0883V25H99.1363ZM102.571 17.272V25H107.243C108.971 25 109.931 23.832 109.931 22.456C109.931 21.096 109.035 19.928 107.243 19.928H104.603V17.272H102.571ZM106.939 21.624C107.515 21.624 107.851 21.976 107.851 22.456C107.851 22.936 107.515 23.288 106.939 23.288H104.603V21.624H106.939Z" fill="#EB5A1E"/>
<path d="M28.8 18.8H25.2V15.2C25.2 14.5373 24.6627 14 24 14C23.3373 14 22.8 14.5373 22.8 15.2V18.8H19.2C18.5373 18.8 18 19.3373 18 20C18 20.6627 18.5373 21.2 19.2 21.2H22.8V24.8C22.8 25.4627 23.3373 26 24 26C24.6627 26 25.2 25.4627 25.2 24.8V21.2H28.8C29.4627 21.2 30 20.6627 30 20C30 19.3373 29.4627 18.8 28.8 18.8Z" fill="#EB5A1E"/>
</svg>
